<svg preserveAspectRatio="none" overflow="visible" style="display: block;" width="1440" height="317" viewBox="0 0 1440 317" fill="none" xmlns="http://www.w3.org/2000/svg">
<g id="Group 1948761307">
<path id="Vector" d="M720 4.24003e-05L720 316.872C722.706 316.954 725.579 317 728.655 317C778.94 317 778.94 295.138 829.224 295.138C879.508 295.138 879.508 317 929.792 317C980.076 317 980.076 295.138 1030.36 295.138C1080.64 295.138 1080.64 317 1130.93 317C1181.21 317 1181.21 295.138 1231.5 295.138C1281.78 295.138 1281.78 317 1332.07 317C1382.35 317 1382.35 295.138 1432.62 295.138C1435.19 295.138 1437.64 295.22 1440 295.375L1440 5.03555e-05L720 4.24003e-05Z" fill="#F7EED9"/>
<path id="Vector_2" d="M720 4.24003e-05L720 316.873C717.294 316.955 714.421 317 711.345 317C661.061 317 661.061 295.138 610.776 295.138C560.492 295.138 560.492 317 510.208 317C459.924 317 459.924 295.138 409.64 295.138C359.355 295.138 359.355 317 309.071 317C258.787 317 258.787 295.138 208.503 295.138C158.218 295.138 158.218 317 107.934 317C57.6501 317 57.6501 295.138 7.37868 295.138C4.81276 295.138 2.36168 295.22 2.39357e-05 295.375L0.000182867 0L720 4.24003e-05Z" fill="#F7EED9"/>
</g>
</svg>
